<?xml version="1.0" encoding="utf-8"?>


<!-- The icon can be used freely in both personal and commercial projects with no attribution required, but always appreciated. 
You may NOT sub-license, resell, rent, redistribute or otherwise transfer the icon without express written permission from iconmonstr.com -->


<!DOCTYPE svg PUBLIC "-//W3C//DTD SVG 1.1//EN" "http://www.w3.org/Graphics/SVG/1.1/DTD/svg11.dtd">

<svg version="1.1" xmlns="http://www.w3.org/2000/svg" xmlns:xlink="http://www.w3.org/1999/xlink" x="0px" y="0px"

	 width="512px" height="512px" viewBox="0 0 512 512" enable-background="new 0 0 512 512" xml:space="preserve">

<path id="facebook-circle-icon" d="M256.417,50c-113.771,0-206,92.229-206,206s92.229,206,206,206s206-92.229,206-206

	S370.188,50,256.417,50z M317.385,171.192c0,0-20.604,0-28.789,0c-10.162,0-12.28,4.163-12.28,14.678c0,8.75,0,25.404,0,25.404

	h41.069l-3.951,44.596h-37.118v133.227h-53.2V256.435h-27.666v-45.16h27.666c0,0,0-6.493,0-35.565

	c0-33.379,17.849-50.807,57.437-50.807c6.484,0,36.833,0,36.833,0V171.192z"/>

</svg>

